<svg width="42" height="44" viewBox="0 0 42 44" fill="none" xmlns="http://www.w3.org/2000/svg">
<path d="M24.4348 10.5942L22.9998 12.0825L21.5578 10.5906C20.0685 9.04785 18.1217 8.06721 16.0294 7.80596C13.9371 7.54471 11.8206 8.01798 10.0194 9.14986C8.21811 10.2818 6.83643 12.0067 6.09591 14.048C5.35538 16.0894 5.29891 18.3289 5.93555 20.4074H12.0606L14.5456 14.9794C14.7895 14.4463 15.1725 13.9943 15.6513 13.6741C16.1301 13.354 16.6858 13.1785 17.2558 13.1674C17.8258 13.1563 18.3875 13.31 18.8776 13.6113C19.3677 13.9125 19.7669 14.3494 20.0301 14.8726L23.495 21.7653L26.2548 18.0302C26.5304 17.6575 26.8825 17.3528 27.2857 17.1381C27.689 16.9234 28.1333 16.804 28.5865 16.7886C29.0398 16.7732 29.4907 16.8621 29.9067 17.0489C30.3227 17.2358 30.6934 17.5159 30.992 17.869L33.1393 20.4074H40.0693C40.7008 18.3284 40.6403 16.0903 39.8973 14.051C39.1543 12.0118 37.7718 10.2893 35.9708 9.15889C34.1699 8.02852 32.0546 7.55562 29.9633 7.81583C27.8719 8.07604 25.9253 9.05432 24.4348 10.5942ZM22.0723 38.6487L10.5643 26.7444H13.9996C14.5797 26.7443 15.1479 26.5738 15.6381 26.2526C16.1282 25.9314 16.5201 25.4728 16.7681 24.9302L17.4418 23.4582L20.2838 29.1107C20.5216 29.5837 20.871 29.9869 21.2995 30.283C21.7279 30.5791 22.2217 30.7586 22.7351 30.8048C23.2484 30.851 23.7647 30.7625 24.2362 30.5474C24.7077 30.3323 25.1191 29.9976 25.4323 29.5743L28.8465 24.9537L29.445 25.6598C30.026 26.3478 30.8678 26.7425 31.7498 26.7425H35.4423L23.9273 38.6487C23.6812 38.903 23.3476 39.0459 22.9998 39.0459C22.652 39.0459 22.3184 38.903 22.0723 38.6487V38.6487ZM18.4848 15.7271C18.3747 15.4997 18.205 15.3088 17.9951 15.1762C17.7852 15.0437 17.5435 14.9748 17.2976 14.9774C17.0518 14.9801 16.8115 15.0541 16.6043 15.1912C16.3972 15.3282 16.2313 15.5227 16.1258 15.7525L13.1683 22.2162H6.8123C6.46421 22.2162 6.13037 22.3592 5.88423 22.6139C5.63808 22.8685 5.4998 23.2139 5.4998 23.5741C5.4998 23.9342 5.63808 24.2796 5.88423 24.5343C6.13037 24.7889 6.46421 24.932 6.8123 24.932H13.9996C14.2481 24.932 14.4916 24.8591 14.7016 24.7216C14.9117 24.5841 15.0797 24.3877 15.1861 24.1553L17.3456 19.437L21.8256 28.707C21.9263 28.9161 22.0774 29.0948 22.2644 29.2258C22.4514 29.3567 22.6678 29.4356 22.8929 29.4547C23.1179 29.4738 23.3439 29.4326 23.5491 29.3349C23.7542 29.2372 23.9315 29.0864 24.0638 28.8971L28.7853 22.1329L30.7628 24.4685C30.8858 24.6143 31.0374 24.7313 31.2077 24.8116C31.3779 24.8918 31.5627 24.9335 31.7498 24.9338H39.1873C39.5354 24.9338 39.8692 24.7907 40.1154 24.5361C40.3615 24.2814 40.4998 23.936 40.4998 23.5759C40.4998 23.2157 40.3615 22.8704 40.1154 22.6157C39.8692 22.361 39.5354 22.218 39.1873 22.218H32.3448L29.6743 19.0622C29.5444 18.9085 29.3827 18.7872 29.2012 18.7071C29.0197 18.6271 28.8231 18.5904 28.626 18.5998C28.4289 18.6092 28.2364 18.6644 28.0628 18.7614C27.8892 18.8584 27.739 18.9946 27.6233 19.1599L23.2045 25.4896L18.4866 15.7271H18.4848Z" fill="#555555"/>
</svg>
