<svg width="42" height="44" viewBox="0 0 42 44" fill="none" xmlns="http://www.w3.org/2000/svg">
<path d="M22.4348 10.3693L20.9998 11.8576L19.5578 10.3657C18.0685 8.82293 16.1217 7.8423 14.0294 7.58105C11.9371 7.3198 9.82062 7.79306 8.01937 8.92495C6.21811 10.0568 4.83643 11.7818 4.09591 13.8231C3.35538 15.8645 3.29891 18.104 3.93555 20.1825H10.0606L12.5456 14.7545C12.7895 14.2214 13.1725 13.7693 13.6513 13.4492C14.1301 13.1291 14.6858 12.9536 15.2558 12.9425C15.8258 12.9314 16.3875 13.0851 16.8776 13.3864C17.3677 13.6876 17.7669 14.1244 18.0301 14.6476L21.495 21.5404L24.2548 17.8052C24.5304 17.4326 24.8825 17.1279 25.2857 16.9132C25.689 16.6985 26.1333 16.5791 26.5865 16.5637C27.0398 16.5482 27.4907 16.6372 27.9067 16.824C28.3227 17.0109 28.6934 17.291 28.992 17.6441L31.1393 20.1825H38.0693C38.7008 18.1035 38.6403 15.8653 37.8973 13.8261C37.1543 11.7869 35.7718 10.0643 33.9708 8.93398C32.1699 7.80361 30.0546 7.33071 27.9633 7.59092C25.8719 7.85113 23.9253 8.82941 22.4348 10.3693ZM20.0723 38.4238L8.5643 26.5194H11.9996C12.5797 26.5194 13.1479 26.3489 13.6381 26.0277C14.1282 25.7065 14.5201 25.2479 14.7681 24.7053L15.4418 23.2333L18.2838 28.8858C18.5216 29.3588 18.871 29.762 19.2995 30.0581C19.7279 30.3542 20.2217 30.5337 20.7351 30.5799C21.2484 30.6261 21.7647 30.5376 22.2362 30.3225C22.7077 30.1074 23.1191 29.7727 23.4323 29.3493L26.8465 24.7288L27.445 25.4349C28.026 26.1229 28.8678 26.5176 29.7498 26.5176H33.4423L21.9273 38.4238C21.6812 38.6781 21.3476 38.821 20.9998 38.821C20.652 38.821 20.3184 38.6781 20.0723 38.4238V38.4238ZM16.4848 15.5022C16.3747 15.2747 16.205 15.0839 15.9951 14.9513C15.7852 14.8188 15.5435 14.7499 15.2976 14.7525C15.0518 14.7552 14.8115 14.8292 14.6043 14.9662C14.3972 15.1033 14.2313 15.2978 14.1258 15.5276L11.1683 21.9912H4.8123C4.46421 21.9912 4.13037 22.1343 3.88423 22.389C3.63808 22.6436 3.4998 22.989 3.4998 23.3492C3.4998 23.7093 3.63808 24.0547 3.88423 24.3094C4.13037 24.564 4.46421 24.7071 4.8123 24.7071H11.9996C12.2481 24.7071 12.4916 24.6342 12.7016 24.4967C12.9117 24.3592 13.0797 24.1628 13.1861 23.9304L15.3456 19.212L19.8256 28.4821C19.9263 28.6912 20.0774 28.8699 20.2644 29.0008C20.4514 29.1318 20.6678 29.2107 20.8929 29.2298C21.1179 29.2489 21.3439 29.2076 21.5491 29.11C21.7542 29.0123 21.9315 28.8615 22.0638 28.6722L26.7853 21.908L28.7628 24.2436C28.8858 24.3894 29.0374 24.5064 29.2077 24.5867C29.3779 24.6669 29.5627 24.7086 29.7498 24.7089H37.1873C37.5354 24.7089 37.8692 24.5658 38.1154 24.3112C38.3615 24.0565 38.4998 23.7111 38.4998 23.351C38.4998 22.9908 38.3615 22.6454 38.1154 22.3908C37.8692 22.1361 37.5354 21.9931 37.1873 21.9931H30.3448L27.6743 18.8373C27.5444 18.6836 27.3827 18.5623 27.2012 18.4822C27.0197 18.4022 26.8231 18.3655 26.626 18.3749C26.4289 18.3843 26.2364 18.4395 26.0628 18.5365C25.8892 18.6335 25.739 18.7697 25.6233 18.935L21.2045 25.2647L16.4866 15.5022H16.4848Z" fill="#FF0404"/>
</svg>
