<svg width="36" height="37" viewBox="0 0 36 37" fill="none" xmlns="http://www.w3.org/2000/svg">
<path d="M19.0545 29.2916C19.7452 29.2916 20.25 28.6518 20.25 27.9627C20.25 26.4234 18 25.4375 18 25.4375C18 25.4375 15.75 26.4866 15.75 27.9627C15.75 28.6518 16.2547 29.2916 16.9455 29.2916C17.4247 29.2916 17.7802 29.0049 18 28.5979C18.2197 29.0049 18.5752 29.2916 19.0545 29.2916ZM16.5 21.5833C16.5 23.7116 14.9887 25.4375 13.125 25.4375C11.2612 25.4375 9.75 23.7116 9.75 21.5833C9.75 19.455 11.2612 17.7291 13.125 17.7291C14.9887 17.7291 16.5 19.455 16.5 21.5833ZM22.875 25.4375C24.7387 25.4375 26.25 23.7116 26.25 21.5833C26.25 19.455 24.7387 17.7291 22.875 17.7291C21.0112 17.7291 19.5 19.455 19.5 21.5833C19.5 23.7116 21.0112 25.4375 22.875 25.4375Z" fill="#555555"/>
<path fill-rule="evenodd" clip-rule="evenodd" d="M9.8655 27.7516C8.0655 27.7516 8.07825 27.2906 8.1315 25.4051C8.142 25.0344 8.154 24.6081 8.154 24.1194C8.154 22.9439 7.8165 22.3881 7.40925 21.7167C6.78675 20.6915 6 19.3942 6 15.2032C6 1.09846 30 1.09846 30 15.2032C30 19.395 29.2133 20.6915 28.5908 21.7167C28.1835 22.3881 27.846 22.9439 27.846 24.1194C27.846 24.6081 27.858 25.0344 27.8685 25.4051C27.921 27.2906 27.9345 27.7516 26.1345 27.7516C23.9805 27.7516 23.9805 29.7326 23.9805 31.0538C23.9805 32.375 21.0765 32.375 18 32.375C14.9235 32.375 12.0195 32.375 12.0195 31.0538C12.0195 29.7334 12.0195 27.7516 9.8655 27.7516ZM9.8655 26.2099C9.78249 26.2102 9.69947 26.2089 9.6165 26.206C9.6165 26.1359 9.6165 26.0565 9.618 25.9671C9.62025 25.8353 9.6255 25.6742 9.63 25.4915C9.6405 25.1068 9.654 24.6266 9.654 24.1194C9.654 22.4629 9.0615 21.504 8.63025 20.8048C8.5395 20.6584 8.45625 20.5235 8.3865 20.3963C8.0055 19.6948 7.5 18.4869 7.5 15.2039C7.5 12.1854 8.76 9.98385 10.6598 8.49537C12.6 6.97452 15.2625 6.16669 18 6.16669C20.7375 6.16669 23.4 6.97452 25.3403 8.49537C27.24 9.98385 28.5 12.1854 28.5 15.2039C28.5 18.4869 27.9945 19.6948 27.6135 20.3955C27.5438 20.5235 27.4605 20.6584 27.3698 20.8056C26.9385 21.504 26.346 22.4629 26.346 24.1202C26.346 24.6266 26.3595 25.1068 26.37 25.4907C26.3753 25.6734 26.3798 25.8353 26.382 25.9663C26.3835 26.0565 26.3835 26.1359 26.3835 26.2053C26.3005 26.2084 26.2175 26.2099 26.1345 26.2099C25.3695 26.2099 24.66 26.3887 24.0608 26.7973C23.4593 27.2074 23.0895 27.7654 22.8668 28.312C22.5518 29.0828 22.4933 29.9477 22.4828 30.5713C22.3006 30.6203 22.1158 30.6579 21.9293 30.6838C20.9498 30.8303 19.5795 30.8334 18 30.8334C16.4205 30.8334 15.0503 30.8295 14.07 30.6838C13.8837 30.6578 13.6991 30.6203 13.5173 30.5713C13.5068 29.9469 13.4475 29.0836 13.1333 28.312C12.9105 27.7654 12.5408 27.2074 11.9393 26.7973C11.3393 26.3887 10.6305 26.2099 9.8655 26.2099Z" fill="#555555"/>
</svg>
